<?xml version="1.0" encoding="UTF-8"?>
<svg version="1.1" xmlns="http://www.w3.org/2000/svg" width="141" height="176">
<path d="M0 0 C3.12373687 5.03013511 4.17654766 10.36926778 5.37304688 16.078125 C6.76015567 22.16051001 9.02082335 26.46512831 14.0625 30.375 C16.87801498 32.24203069 16.87801498 32.24203069 20 32 C19.83242188 31.15695313 19.66484375 30.31390625 19.4921875 29.4453125 C19.28851563 28.34960938 19.08484375 27.25390625 18.875 26.125 C18.66617188 25.03445312 18.45734375 23.94390625 18.2421875 22.8203125 C18.16226563 21.88960937 18.08234375 20.95890625 18 20 C18.66 19.34 19.32 18.68 20 18 C21.65 18.33 23.3 18.66 25 19 C26.32 23.29 27.64 27.58 29 32 C34.10756901 30.297477 37.54185777 29.01391509 41 25 C43.78302837 19.22779301 44.87592247 13.23095242 46.05859375 6.953125 C47.12900884 3.59530837 48.25550591 2.17124487 51 0 C55.08068121 -1.20909073 57.24331183 -1.27648222 61.25 0.1875 C65.41819127 4.45042289 65.83068155 9.28970867 67 15 C68.52953841 20.97503892 69.99484151 25.04243282 75 29 C78.16645474 30.79320824 78.16645474 30.79320824 81 32 C81.99 27.71 82.98 23.42 84 19 C85.65 18.67 87.3 18.34 89 18 C89.99 18.99 89.99 18.99 91 20 C90.66887313 24.10597317 90.15559618 28.03795597 89 32 C94.2331944 31.78640023 97.56372157 30.73124297 101.43359375 27.12109375 C104.70535863 22.69074879 105.71180511 17.27373682 107 12 C107.51357462 9.93568057 108.0338185 7.87300224 108.5625 5.8125 C108.77003906 4.93207031 108.97757812 4.05164062 109.19140625 3.14453125 C110 1 110 1 113 -1 C119.09174312 -0.78243775 119.09174312 -0.78243775 121.8046875 1.5546875 C123.59392208 5.21501707 122.56034162 8.21629952 121.625 12 C121.347771 13.20873779 121.347771 13.20873779 121.06494141 14.44189453 C120.39953926 17.30052164 119.70108964 20.14991822 119 23 C118.71705078 24.17143555 118.43410156 25.34287109 118.14257812 26.54980469 C116.64912115 32.72436606 115.13559997 38.89398149 113.5859375 45.0546875 C113.3286084 46.08062012 113.0712793 47.10655273 112.80615234 48.16357422 C112 51 112 51 111.03442383 53.28515625 C109.5339441 57.22316298 108.74110189 61.26740359 107.86328125 65.3828125 C107.4503731 67.27982386 107.03727997 69.17679497 106.62402344 71.07373047 C106.40999878 72.06290466 106.19597412 73.05207886 105.97546387 74.07122803 C102.87173488 88.36775466 99.75476338 102.67068162 96.25 116.875 C95.88322144 118.45498779 95.88322144 118.45498779 95.5090332 120.06689453 C93.60560388 127.55684203 90.65581718 132.10406626 84.61328125 136.890625 C83.85402344 137.33921875 83.09476562 137.7878125 82.3125 138.25 C81.56613281 138.70890625 80.81976563 139.1678125 80.05078125 139.640625 C71.75813016 143.33568592 63.64588117 144.53354792 54.625 144.4375 C53.11945557 144.42614014 53.11945557 144.42614014 51.58349609 144.41455078 C38.76578851 144.13072567 27.72655503 140.8990308 18.5625 131.5 C17.0386053 128.08647588 16.62964706 125.77352966 16.203125 122.1015625 C14.86317174 112.21024799 12.4913733 102.57855167 10.1875 92.875 C9.75664068 91.03658031 9.32629982 89.19803903 8.89648438 87.359375 C7.61683429 81.90159323 6.31142921 76.45021916 5 71 C4.77991272 70.07819946 4.55982544 69.15639893 4.33306885 68.20666504 C3.68326495 65.49285169 3.02460298 62.78133941 2.36328125 60.0703125 C2.17001755 59.25956268 1.97675385 58.44881287 1.77763367 57.61349487 C0.5965692 52.8258001 -1.04360796 48.53926379 -3 44 C-3.87718089 41.15920895 -4.5933805 38.2865585 -5.296875 35.3984375 C-5.49476624 34.59894684 -5.69265747 33.79945618 -5.89654541 32.97573853 C-6.30966374 31.29742227 -6.71959289 29.61831805 -7.12646484 27.93847656 C-7.75060693 25.37250478 -8.39236589 22.81135532 -9.03515625 20.25 C-9.43597417 18.6122427 -9.83575011 16.97422996 -10.234375 15.3359375 C-10.42698914 14.57437347 -10.61960327 13.81280945 -10.8180542 13.02816772 C-11.76350852 9.04970174 -12.33238207 5.92312498 -11 2 C-7.69669716 -1.81150327 -4.61346969 -1.42598154 0 0 Z " fill="#121212" transform="translate(16,32)"/>
<path d="M0 0 C3.12373687 5.03013511 4.17654766 10.36926778 5.37304688 16.078125 C6.76015567 22.16051001 9.02082335 26.46512831 14.0625 30.375 C16.87801498 32.24203069 16.87801498 32.24203069 20 32 C19.83242188 31.15695313 19.66484375 30.31390625 19.4921875 29.4453125 C19.28851563 28.34960938 19.08484375 27.25390625 18.875 26.125 C18.66617188 25.03445312 18.45734375 23.94390625 18.2421875 22.8203125 C18.16226563 21.88960937 18.08234375 20.95890625 18 20 C18.66 19.34 19.32 18.68 20 18 C21.65 18.33 23.3 18.66 25 19 C26.32 23.29 27.64 27.58 29 32 C34.10756901 30.297477 37.54185777 29.01391509 41 25 C43.78302837 19.22779301 44.87592247 13.23095242 46.05859375 6.953125 C47.12900884 3.59530837 48.25550591 2.17124487 51 0 C55.08068121 -1.20909073 57.24331183 -1.27648222 61.25 0.1875 C65.41819127 4.45042289 65.83068155 9.28970867 67 15 C68.52953841 20.97503892 69.99484151 25.04243282 75 29 C78.16645474 30.79320824 78.16645474 30.79320824 81 32 C81.99 27.71 82.98 23.42 84 19 C85.65 18.67 87.3 18.34 89 18 C89.99 18.99 89.99 18.99 91 20 C90.66887313 24.10597317 90.15559618 28.03795597 89 32 C94.2331944 31.78640023 97.56372157 30.73124297 101.43359375 27.12109375 C104.70535863 22.69074879 105.71180511 17.27373682 107 12 C107.51357462 9.93568057 108.0338185 7.87300224 108.5625 5.8125 C108.77003906 4.93207031 108.97757812 4.05164062 109.19140625 3.14453125 C110 1 110 1 113 -1 C119.09174312 -0.78243775 119.09174312 -0.78243775 121.8046875 1.5546875 C123.59383137 5.2148315 122.56069481 8.21646891 121.625 12 C121.347771 13.20438721 121.347771 13.20438721 121.06494141 14.43310547 C120.39727512 17.29399957 119.69801228 20.14636155 119 23 C118.41125316 25.48172217 117.82272309 27.96349577 117.234375 30.4453125 C116.61669335 33.00571828 115.99690902 35.56561774 115.375 38.125 C115.07416504 39.37667969 114.77333008 40.62835938 114.46337891 41.91796875 C114.17382324 43.08199219 113.88426758 44.24601562 113.5859375 45.4453125 C113.3286084 46.49219238 113.0712793 47.53907227 112.80615234 48.61767578 C112 51 112 51 110 52 C109.67 51.34 109.34 50.68 109 50 C106.07536226 49.21683341 103.21823258 48.56953792 100.25 48 C99.34894531 47.82629883 98.44789062 47.65259766 97.51953125 47.47363281 C67.84968856 41.9902673 35.31533878 41.30638168 6 49 C3 49.125 3 49.125 1 49 C0.67 49.66 0.34 50.32 0 51 C-2.34670425 45.87492633 -3.96447492 40.86846269 -5.296875 35.3984375 C-5.49476624 34.59894684 -5.69265747 33.79945618 -5.89654541 32.97573853 C-6.30966374 31.29742227 -6.71959289 29.61831805 -7.12646484 27.93847656 C-7.75060693 25.37250478 -8.39236589 22.81135532 -9.03515625 20.25 C-9.43597417 18.6122427 -9.83575011 16.97422996 -10.234375 15.3359375 C-10.42698914 14.57437347 -10.61960327 13.81280945 -10.8180542 13.02816772 C-11.76350852 9.04970174 -12.33238207 5.92312498 -11 2 C-7.69669716 -1.81150327 -4.61346969 -1.42598154 0 0 Z " fill="#B39A14" transform="translate(16,32)"/>
<path d="M0 0 C4.51315789 2.02631579 4.51315789 2.02631579 6 5 C6.1875 8.5 6.1875 8.5 6 12 C5.34 12.66 4.68 13.32 4 14 C3.35972838 19.3283621 4.10502382 24.74201496 5 30 C1.93510953 32.04326031 1.26075215 32.19654108 -2.1875 32.3125 C-6.72526212 32.70419608 -9.51846358 34.20618757 -13.17578125 36.84375 C-15.12388609 38.07852309 -16.76754871 38.49368872 -19 39 C-19.98037182 34.77111177 -20.95908689 30.5418418 -21.9375 26.3125 C-22.21529297 25.11431641 -22.49308594 23.91613281 -22.77929688 22.68164062 C-23.04677734 21.52470703 -23.31425781 20.36777344 -23.58984375 19.17578125 C-23.83597412 18.11270752 -24.08210449 17.04963379 -24.33569336 15.9543457 C-24.93046178 13.30925467 -25.48157346 10.6609694 -26 8 C-25.01 8.495 -25.01 8.495 -24 9 C-22.62657169 9.0689472 -21.24997898 9.08467708 -19.875 9.0625 C-18.59625 9.041875 -17.3175 9.02125 -16 9 C-15.7525 8.071875 -15.505 7.14375 -15.25 6.1875 C-12.43638068 -0.98722926 -6.8519458 -0.84263411 0 0 Z " fill="#FBFBFB" transform="translate(45,86)"/>
<path d="M0 0 C-0.66574138 6.48906541 -2.00421056 12.67081322 -3.5625 19 C-3.79646484 19.96550781 -4.03042969 20.93101563 -4.27148438 21.92578125 C-4.84373134 24.28484017 -5.41997829 26.64284292 -6 29 C-9.51973879 28.40355891 -9.87414155 28.17398079 -12.125 25.0625 C-12.74375 24.051875 -13.3625 23.04125 -14 22 C-17.00617269 18.99382731 -19.82381598 19.40414684 -24 19 C-24.85883109 16.60487478 -25.17516838 15.4383567 -24.21484375 13.03515625 C-17.9034027 3.28812955 -11.64034146 -0.45648398 0 0 Z " fill="#F7F7F7" transform="translate(121,107)"/>
<path d="M0 0 C3.97106763 1.32368921 5.10994659 3.78001186 7.1875 7.1875 C7.55552734 7.75275391 7.92355469 8.31800781 8.30273438 8.90039062 C10.6740769 12.7411736 11.59984125 15.50757193 11 20 C8.4143253 23.52592004 6.71584145 24.79547387 2.5 26 C-1.48112565 26 -2.96510436 25.5290797 -6 23 C-7.875 20.5625 -7.875 20.5625 -9 18 C-8.31870407 13.78411749 -6.07252371 10.37843407 -3.9375 6.75 C-3.56044922 6.1003125 -3.18339844 5.450625 -2.79492188 4.78125 C-1.86765885 3.18494909 -0.93441544 1.59212471 0 0 Z " fill="#BBA21B" transform="translate(10,0)"/>
<path d="M0 0 C0.66 0 1.32 0 2 0 C3.710249 2.32318789 5.24064705 4.61384025 6.75 7.0625 C7.40548828 8.04766602 7.40548828 8.04766602 8.07421875 9.05273438 C10.42613163 12.86613945 11.1208856 14.29388586 10.3359375 18.87890625 C8.3088582 23.61468508 8.3088582 23.61468508 6 25 C1.0093553 26.22720771 -0.84223979 26.61045539 -5.4375 24.1875 C-8.31680634 21.72955556 -8.87138972 21.01990947 -9.3359375 17.3359375 C-8.88917943 12.89952601 -7.09393987 10.25267545 -4.625 6.625 C-4.2125 5.98433594 -3.8 5.34367188 -3.375 4.68359375 C-2.31391303 3.07827186 -1.16330189 1.53287072 0 0 Z " fill="#BAA11A" transform="translate(71,0)"/>
<path d="M0 0 C0.66 0 1.32 0 2 0 C10.43246482 11.10782514 10.43246482 11.10782514 10.875 17.5 C10 21 10 21 7.375 24 C3.70258249 26.17624741 2.16689958 26.7092595 -2 26 C-4.81282746 24.72144206 -6.50828818 23.64816558 -8.375 21.1875 C-9.61337654 16.85318212 -8.2416617 13.46632741 -6.22265625 9.5703125 C-5.51275409 8.4155733 -4.79249123 7.26714557 -4.0625 6.125 C-3.70220703 5.53203125 -3.34191406 4.9390625 -2.97070312 4.328125 C-2.0426706 2.84464022 -1.02758664 1.41634641 0 0 Z " fill="#BAA119" transform="translate(131,0)"/>
<path d="M0 0 C3.67495679 0.53350906 7.353297 1.00168686 11.04052734 1.44140625 C10.71052734 3.09140625 10.38052734 4.74140625 10.04052734 6.44140625 C9.05052734 5.45140625 9.05052734 5.45140625 8.04052734 4.44140625 C-18.59273896 -2.50876314 -45.67301651 -1.81798968 -72.95947266 -1.55859375 C-69.85253434 -3.62988596 -68.93736496 -3.84242202 -65.37353516 -4.0078125 C-64.45427246 -4.05204346 -63.53500977 -4.09627441 -62.58789062 -4.1418457 C-61.5967627 -4.17624756 -60.60563477 -4.21064941 -59.58447266 -4.24609375 C-58.55080566 -4.28371826 -57.51713867 -4.32134277 -56.45214844 -4.36010742 C-37.31984048 -4.94036153 -18.91384052 -2.80409484 0 0 Z " fill="#EBEAE5" transform="translate(116.95947265625,77.55859375)"/>
<path d="M0 0 C0.66 0 1.32 0 2 0 C4.8401533 3.37634743 7.09225154 6.52397534 6.8125 11 C6 13 6 13 3.25 14.1875 C0 15 0 15 -2.375 13.625 C-2.91125 13.08875 -3.4475 12.5525 -4 12 C-3.53680089 7.27536912 -2.90108294 3.82942948 0 0 Z " fill="#C2AB32" transform="translate(37,33)"/>
<path d="M0 0 C0.66 0 1.32 0 2 0 C4.13950218 2.42230994 5.75541395 5.01940335 7 8 C6.3125 11.5 6.3125 11.5 5 14 C2.75 14.6875 2.75 14.6875 0 15 C-2.3125 13.5625 -2.3125 13.5625 -4 12 C-3.53680089 7.27536912 -2.90108294 3.82942948 0 0 Z " fill="#C1AA2F" transform="translate(102,33)"/>
<path d="M0 0 C1.32 0 2.64 0 4 0 C5.25 6.625 5.25 6.625 3 10 C2.01 9.67 1.02 9.34 0 9 C0 6.03 0 3.06 0 0 Z " fill="#E6E6E6" transform="translate(80,156)"/>
<path d="M0 0 C1.98 0.495 1.98 0.495 4 1 C4 3.64 4 6.28 4 9 C2.68 9 1.36 9 0 9 C-1.125 2.25 -1.125 2.25 0 0 Z " fill="#E8E8E8" transform="translate(57,156)"/>
</svg>
