<?xml version="1.0" standalone="no"?>
<!DOCTYPE svg PUBLIC "-//W3C//DTD SVG 20010904//EN"
 "http://www.w3.org/TR/2001/REC-SVG-20010904/DTD/svg10.dtd">
<svg version="1.0" xmlns="http://www.w3.org/2000/svg"
 width="250.000000pt" height="250.000000pt" viewBox="0 0 250.000000 250.000000"
 preserveAspectRatio="xMidYMid meet">
<metadata>
Created by potrace 1.14, written by Peter Selinger 2001-2017
</metadata>
<g transform="translate(0.000000,250.000000) scale(0.100000,-0.100000)"
fill="#000000" stroke="none">
<path d="M1244 2463 c-10 -21 -21 -40 -24 -43 -8 -7 -44 -64 -45 -70 -1 -3
-11 -21 -23 -40 -25 -40 -24 -76 5 -114 19 -26 58 -49 85 -50 9 -1 20 -4 24
-8 4 -4 13 -3 21 3 7 6 13 9 13 5 0 -4 10 0 23 9 13 8 26 13 29 10 7 -7 48 74
48 94 0 10 -3 21 -7 25 -5 4 -8 11 -8 14 -1 4 -13 26 -28 49 -15 24 -27 47
-27 53 0 5 -4 10 -10 10 -5 0 -10 7 -10 15 0 8 -9 24 -20 35 -11 11 -20 23
-19 26 3 20 -11 9 -27 -23z"/>
<path d="M369 2433 c-18 -32 -32 -61 -31 -65 1 -5 -1 -8 -6 -8 -4 0 -16 -16
-26 -35 -11 -19 -22 -35 -26 -35 -8 0 -6 -27 4 -60 9 -26 75 -94 84 -86 2 3
13 1 23 -5 13 -6 19 -6 19 0 0 6 7 8 15 5 8 -4 21 -1 29 5 7 6 15 8 18 6 8 -9
69 65 63 76 -4 5 -2 9 4 9 5 0 8 6 7 14 -3 23 -40 96 -48 96 -5 0 -8 4 -8 9 0
15 -71 131 -80 131 -5 0 -23 -26 -41 -57z"/>
<path d="M2050 2383 c-35 -60 -63 -117 -62 -128 2 -34 34 -81 66 -95 17 -8 34
-13 39 -12 4 1 7 -2 7 -8 0 -6 10 -6 28 1 15 6 28 10 30 9 2 -1 15 3 30 9 31
13 62 61 62 98 0 25 -33 96 -57 121 -6 6 -15 21 -18 32 -3 11 -11 20 -16 20
-5 0 -8 3 -7 8 3 11 -21 52 -31 52 -5 0 -37 -48 -71 -107z"/>
<path d="M1270 2053 c0 -5 -14 -10 -31 -10 -51 0 -86 -45 -105 -133 -9 -41
-17 -86 -18 -100 -2 -14 -8 -38 -15 -53 -6 -16 -11 -32 -11 -36 0 -5 -13 -24
-30 -42 -16 -19 -30 -37 -30 -40 0 -5 -75 -48 -124 -72 -11 -5 -46 39 -52 67
-4 17 -9 33 -9 36 -1 3 -6 25 -10 49 -5 30 -14 45 -26 48 -11 3 -19 10 -19 15
0 6 -10 4 -22 -4 -28 -19 -29 -48 -7 -126 17 -60 17 -92 -1 -92 -5 0 -12 5
-15 10 -3 6 -13 10 -22 10 -29 0 -101 53 -125 92 -13 21 -26 38 -30 38 -4 0
-10 17 -14 38 -4 20 -11 43 -17 50 -5 6 -7 12 -4 12 3 0 -1 26 -8 58 -8 33
-16 70 -19 85 -11 64 -43 94 -99 95 -54 1 -89 -34 -85 -84 1 -19 5 -37 9 -39
3 -3 5 -16 4 -30 -2 -14 1 -25 7 -25 6 0 8 -6 5 -14 -3 -8 -3 -17 1 -20 3 -4
7 -14 8 -23 2 -9 10 -47 19 -83 9 -36 18 -75 20 -86 2 -10 4 -19 6 -19 1 0 3
-9 4 -20 2 -11 8 -34 13 -52 6 -17 8 -34 4 -37 -3 -3 -1 -6 5 -6 5 0 9 -10 8
-22 -1 -13 2 -28 6 -34 5 -6 10 -23 11 -38 1 -14 6 -26 10 -26 4 0 8 -8 8 -18
0 -10 4 -22 9 -27 10 -10 35 -102 46 -165 3 -19 13 -55 21 -80 9 -25 16 -53
17 -62 1 -10 4 -18 7 -18 3 0 5 -12 5 -27 -1 -16 2 -32 5 -38 11 -17 29 -98
24 -107 -3 -4 0 -8 6 -8 6 0 10 -6 9 -12 -1 -7 1 -24 4 -38 4 -14 9 -38 11
-55 2 -16 5 -30 6 -30 1 0 3 -12 5 -26 2 -14 9 -45 16 -70 6 -24 12 -54 13
-66 1 -12 5 -25 9 -29 4 -4 7 -20 7 -36 0 -16 4 -27 8 -24 4 2 7 -11 7 -30 -1
-19 1 -34 5 -34 4 0 7 -6 8 -12 0 -7 3 -44 6 -83 3 -38 11 -72 16 -73 6 -2 8
-7 5 -11 -2 -4 14 -27 35 -51 22 -25 40 -41 40 -37 0 4 10 -1 22 -13 12 -11
28 -20 35 -20 7 0 13 -4 13 -9 0 -8 24 -18 65 -27 11 -3 24 -9 29 -14 6 -6 23
-10 38 -10 15 0 28 -3 28 -8 0 -10 73 -16 205 -16 100 1 133 3 204 18 66 14
162 53 169 69 2 4 9 7 15 7 7 0 35 20 62 45 28 25 53 45 56 45 15 0 69 187 84
292 2 14 8 35 14 46 6 11 8 22 5 25 -3 3 -2 12 2 19 10 15 16 43 17 76 1 12 4
22 7 22 4 0 7 6 7 13 1 22 14 91 20 112 4 11 8 25 9 30 1 6 6 28 12 50 6 22
13 51 16 65 4 21 15 72 32 143 2 9 6 25 8 35 2 9 10 40 16 67 11 47 14 59 24
112 3 12 9 30 15 41 6 11 7 22 4 26 -3 3 -1 6 6 6 7 0 10 4 6 9 -3 5 -1 12 4
15 4 3 12 25 16 48 8 45 11 56 14 61 2 1 4 13 7 27 2 14 7 32 10 40 6 14 13
56 17 93 1 9 4 17 7 17 3 0 7 14 8 32 2 17 6 36 10 42 5 6 7 21 6 34 0 12 2
22 6 22 6 0 18 52 22 98 1 6 4 12 8 12 3 0 7 17 8 38 4 57 -34 92 -93 88 -42
-3 -74 -23 -79 -49 -1 -6 -9 -39 -16 -72 -8 -33 -14 -62 -15 -65 0 -3 -3 -9
-6 -15 -3 -5 -4 -20 -3 -32 0 -13 -3 -23 -8 -23 -6 0 -8 -6 -5 -14 3 -7 -1
-23 -8 -34 -8 -10 -12 -22 -9 -24 2 -3 -2 -11 -11 -18 -8 -7 -15 -16 -15 -21
0 -18 -87 -88 -118 -94 -38 -7 -47 -10 -52 -17 -10 -14 -51 4 -46 19 4 8 9 32
12 54 4 21 10 39 13 39 4 0 7 19 6 41 -1 28 -8 46 -20 55 -32 24 -56 -3 -75
-82 -15 -65 -49 -143 -50 -116 0 6 -9 12 -20 12 -11 0 -20 5 -20 11 0 5 -4 8
-8 5 -12 -7 -84 62 -109 104 -18 30 -27 56 -39 115 -1 6 -5 28 -8 50 -13 80
-28 116 -58 143 -17 15 -35 26 -40 24 -6 -1 -16 3 -24 9 -8 6 -14 7 -14 2z"/>
<path d="M780 2013 c0 -6 -15 -33 -34 -61 l-34 -49 18 -31 c23 -37 62 -50 96
-31 36 19 41 54 13 102 -26 48 -59 86 -59 70z"/>
<path d="M1697 2000 c-9 -11 -17 -24 -17 -29 0 -5 -7 -14 -15 -21 -8 -6 -14
-15 -13 -18 1 -4 -2 -15 -7 -25 -10 -24 19 -65 52 -73 37 -10 77 17 81 53 1
18 -10 47 -31 80 -32 52 -33 52 -50 33z"/>
</g>
</svg>
